<svg width="138" height="192" viewBox="0 0 138 192" fill="none" xmlns="http://www.w3.org/2000/svg">
<path d="M75.4306 68.5019C84.2016 74.5879 95.3741 86.1012 98.584 96.6481C101.904 107.556 102.095 118.448 102.095 129.787C102.095 142.662 102.275 155.773 107.253 167.919C109.368 173.081 113.46 185.288 118.884 188" stroke="#51A050" stroke-width="8" stroke-linecap="round"/>
<path d="M104.524 140.091C104.524 137.307 104.309 134.57 105.107 131.881C106.455 127.343 111.277 123.69 114.851 120.917C119.803 117.075 124.526 113.441 128.429 108.506C129.738 106.85 130.978 105.27 132.134 103.537" stroke="#51A050" stroke-width="5" stroke-linecap="round"/>
<path d="M132.134 103.537C132.972 105.866 133.967 108.024 134.316 110.537C134.739 113.584 135.021 116.975 134.467 120.021C133.812 123.625 130.969 126.699 128.634 129.353C124.909 133.589 120.478 137.117 116.601 141.214C112.968 145.052 110.891 149.659 109.234 154.63C109.065 155.136 109.241 155.747 109.147 156.272C109.009 157.05 108.896 157.831 108.758 158.605C108.348 160.916 108.024 163.004 108.024 165.367" stroke="#51A050" stroke-width="5" stroke-linecap="round"/>
<path d="M107.441 156.229V155.256" stroke="#51A050" stroke-width="5" stroke-linecap="round"/>
<path d="M118.329 127.258C116.722 129.401 114.925 131.411 113.198 133.458C112.495 134.292 112.098 135.274 111.426 136.094C110.76 136.909 110.746 136.364 110.746 135.619C110.746 134.46 110.502 133.03 110.854 131.924C111.129 131.061 111.527 130.264 111.761 129.397C111.911 128.843 112.453 127.246 112.453 127.82C112.453 128.162 111.911 128.86 111.718 129.159C110.576 130.936 109.218 132.481 108.413 134.495C107.509 136.753 107.192 138.853 107.041 141.268C106.911 143.348 106.86 145.503 106.566 147.565C106.392 148.781 106.734 150.196 106.371 151.357C106.014 152.499 106.274 154.053 106.274 155.256C106.274 155.692 106.08 157.784 106.08 156.617" stroke="#51A050" stroke-width="8" stroke-linecap="round"/>
<path d="M108.024 151.562C108.024 147.611 109.937 144.391 111.815 141.052C112.72 139.443 113.473 137.9 114.635 136.44C115.461 135.401 116.432 134.431 117.357 133.48C117.947 132.873 118.468 132.072 119.182 131.643C120.314 130.965 117.195 133.387 116.298 134.355C115.248 135.489 114.176 137.156 113.468 138.535C113.338 138.789 112.688 140.334 112.885 140.242C113.73 139.844 114.556 139.255 115.412 138.827C116.94 138.063 117.949 136.571 118.955 135.23C120.288 133.453 122.08 132.041 123.287 130.185C124.331 128.579 125.876 127.623 126.992 126.188C127.909 125.01 128.544 123.655 129.066 122.246C129.567 120.893 130.251 119.642 130.567 118.217C130.818 117.089 130.695 115.766 131.01 114.663C131.301 113.645 131.356 112.274 131.356 111.217C131.356 110.741 131.426 110.438 131.54 110.04C131.632 109.717 132.116 109.061 131.896 109.802C131.581 110.864 131.745 112.119 131.745 113.215C131.745 114.785 131.745 116.355 131.745 117.925C131.745 119.301 131.757 121.601 130.967 122.786" stroke="#51A050" stroke-width="8" stroke-linecap="round"/>
<path d="M110.163 141.063C109.799 140.187 108.661 138.93 108.607 137.952C108.57 137.286 108.373 136.559 108.229 135.91C107.989 134.831 107.642 132.716 108.521 131.838C109.09 131.268 109.658 130.632 110.206 130.023C110.585 129.601 110.944 128.889 111.416 128.619C112.308 128.109 112.884 127.372 113.9 127.02C114.793 126.711 115.787 126.503 116.579 125.994C120.497 123.476 123.802 119.905 126.765 116.283C127.52 115.36 127.865 114.01 128.677 113.107C129.306 112.409 129.567 111.759 129.401 113.259C129.236 114.737 128.418 116.348 127.899 117.731C126.926 120.325 125.833 122.91 124.637 125.411C123.69 127.391 122.492 129.26 120.856 130.747C120.081 131.452 119.161 132.034 118.34 132.691C117.969 132.988 117.27 133.647 116.773 133.674C115.147 133.765 117.152 130.36 117.465 129.872C119.175 127.204 121.862 125.643 123.73 123.175C124.014 122.799 124.745 122.125 124.745 121.619C124.745 121.368 124.393 121.693 124.324 121.738C122.946 122.633 121.707 123.792 120.457 124.849C117.479 127.367 114.902 130.248 112.107 132.896C110.706 134.224 111.269 131.656 111.621 130.952C112.361 129.472 114.016 128.521 115.067 127.279C116.24 125.892 117.283 124.398 118.426 122.991C119.286 121.932 120.08 120.673 121.051 119.675C121.577 119.134 121.985 118.585 122.412 117.968C122.675 117.588 123.172 117.431 123.384 117.061C123.53 116.805 123.558 117.252 123.535 117.342C123.423 117.78 123.087 118.153 122.812 118.497C121.674 119.919 120.102 121.084 118.696 122.224C116.732 123.817 115.139 125.389 113.716 127.463C112.46 129.295 111.501 131.69 110.703 133.761C110.434 134.457 110.183 134.973 110.163 135.705C110.129 136.91 109.428 138.007 109.082 139.14C108.643 140.578 108.011 141.955 107.549 143.385C107.336 144.043 107.23 144.975 106.857 145.535" stroke="#51A050" stroke-width="8" stroke-linecap="round"/>
<path d="M78.8361 47.2152C93.1201 43.0002 98.5661 27.0243 102.815 14.2768" stroke="#F1CA49" stroke-width="8" stroke-linecap="round"/>
<path d="M102.288 14.2768C100.483 14.2768 98.3503 13.9797 96.6228 14.5696C94.2958 15.3641 91.9963 16.9504 89.9034 18.2294C85.2834 21.0527 81.7897 25.1664 78.3091 29.2381C76.0159 31.9207 74.3294 34.4968 72.9218 37.7143C72.6358 38.3679 72.2741 40.3512 71.7214 40.6275" stroke="#F1CA49" stroke-width="8" stroke-linecap="round"/>
<path d="M68.0323 4.26349C68.1196 8.80201 70.1311 13.1089 70.8723 17.556C71.4457 20.9963 71.4579 24.2669 71.4579 27.7596C71.4579 31.7892 70.9309 43.8666 70.9309 39.837" stroke="#F1CA49" stroke-width="8" stroke-linecap="round"/>
<path d="M66.1877 4C65.6096 5.42836 64.909 6.42215 64.0797 7.6891C62.8274 9.60229 62.1969 11.9526 61.386 14.0718C59.7144 18.4408 57.9059 23.4455 57.7555 28.1841C57.6436 31.7102 57.7555 35.3322 57.7555 38.783" stroke="#F1CA49" stroke-width="8" stroke-linecap="round"/>
<path d="M36.6749 8.74313C40.8541 10.3649 43.1915 13.4943 46.2197 16.5898C49.2043 19.6407 50.7492 23.3499 52.6024 27.1594C54.0578 30.151 55.353 33.4325 56.1159 36.6749C56.3375 37.6169 56.7014 38.8849 56.7014 39.837" stroke="#F1CA49" stroke-width="8" stroke-linecap="round"/>
<path d="M35.3574 10.0607C35.3574 14.8087 34.2563 19.4295 34.0545 24.1729C33.8659 28.6055 33.9671 33.0001 34.5669 37.3483C35.0625 40.9414 37.3613 43.6623 39.5735 46.3661C40.4212 47.4022 41.3867 48.2379 42.3257 49.1769C42.7705 49.6216 43.5154 49.8289 43.7896 50.3773" stroke="#F1CA49" stroke-width="8" stroke-linecap="round"/>
<path d="M4.26355 51.6948C8.29558 51.6948 12.194 51.1854 16.1799 50.6993C20.1612 50.2138 24.1799 50.3773 28.1841 50.3773C31.9673 50.3773 35.3435 50.963 39.0465 51.6362C40.0507 51.8188 41.2086 52.2218 42.2086 52.2218" stroke="#F1CA49" stroke-width="8" stroke-linecap="round"/>
<path d="M4 52.4853C5.15808 56.2813 8.54243 59.145 11.7003 61.386C15.7111 64.2324 20.6607 65.3167 25.4026 66.1877C29.9353 67.0202 34.4856 67.4983 38.9293 66.0413C40.4901 65.5296 41.9912 64.8548 43.5261 64.3431" stroke="#F1CA49" stroke-width="8" stroke-linecap="round"/>
<path d="M44.3166 64.6067C42.1827 66.2385 40.0384 68.3872 38.1389 70.2867C34.8238 73.6017 31.9875 77.4706 29.5602 81.4711C27.0347 85.6336 24.6654 90.1054 23.646 94.9246C23.2282 96.8993 22.9491 98.8952 22.4455 100.854C22.2133 101.756 21.9185 102.407 21.9185 103.342" stroke="#F1CA49" stroke-width="8" stroke-linecap="round"/>
<path d="M22.9725 104.133C24.7341 104.133 26.4957 104.133 28.2573 104.133C29.0308 104.133 29.9075 104.192 30.6142 103.811C35.092 101.392 39.4369 98.1236 43.3211 94.8514C46.4757 92.1939 48.4606 88.2886 50.4066 84.7211C51.9875 81.8226 54.0664 77.4995 54.0664 74.0929" stroke="#F1CA49" stroke-width="8" stroke-linecap="round"/>
<path d="M56.1745 73.8294C56.1745 77.3777 55.3839 80.8197 55.3839 84.3697C55.3839 88.5518 55.3166 92.7053 55.706 96.8716C56.0464 100.514 56.8952 103.963 57.492 107.544C57.5721 108.024 58.7242 111.069 59.073 110.72" stroke="#F1CA49" stroke-width="8" stroke-linecap="round"/>
<path d="M60.3906 110.984C60.5077 108.408 62.2744 107.275 63.7576 105.392C65.0774 103.716 65.7725 101.801 66.7148 99.9166C68.6308 96.0846 70.4145 92.4958 71.4579 88.3223C72.1329 85.6223 71.9849 82.9646 71.9849 80.1829C71.9849 78.0757 71.9954 76.1286 71.5165 74.0929C71.2836 73.1033 71.3751 72.0827 70.9309 71.1943" stroke="#F1CA49" stroke-width="8" stroke-linecap="round"/>
<path d="M76.9915 66.4512C85.8124 66.4512 94.8615 67.7488 103.43 64.9287C106.793 63.8218 109.954 61.4971 112.243 58.8095C112.97 57.9555 114.584 56.7046 114.937 55.6474" stroke="#F1CA49" stroke-width="8" stroke-linecap="round"/>
<path d="M78.8361 50.6408C83.2413 50.0534 87.5798 48.9526 92.0261 48.7816C96.7521 48.5998 101.787 48.0097 106.504 48.5913C109.043 48.9043 111.422 49.8824 113.722 50.9043C114.364 51.1897 114.853 51.9163 115.464 52.2218" stroke="#F1CA49" stroke-width="8" stroke-linecap="round"/>
<path d="M61.237 110.773C61.423 110.627 61.7453 110.438 61.8671 110.219C61.9486 110.072 62.1306 109.906 62.175 109.75C62.2746 109.402 62.6311 109.044 62.8359 108.748C62.9866 108.531 63.0834 108.272 63.222 108.045C63.391 107.768 63.5808 107.506 63.7431 107.225C63.8252 107.083 63.8702 106.914 63.9444 106.766C64.0178 106.619 64.1391 106.49 64.1979 106.339C64.247 106.213 64.3064 105.934 64.4347 105.87" stroke="#F1CA49" stroke-width="5" stroke-linecap="round"/>
<path d="M61.6426 55.9401C62.4245 57.0695 63.2643 58.1831 64.0942 59.277C64.3865 59.6623 64.9669 60.4367 65.4221 60.6389C65.9853 60.8893 65.9531 61.4966 65.9328 62.0236C65.9149 62.4884 65.3957 63.0777 65.2064 63.5104C64.758 64.5353 64.3934 65.5565 63.8899 66.5635C62.5649 69.2133 58.1466 68.487 56.0813 67.0856C54.1853 65.799 52.0189 63.9546 50.9739 61.8647C50.4666 60.8501 50.3645 59.7791 49.9524 58.8003C49.4411 57.586 49.274 55.2047 49.6346 53.9426C50.0053 52.6452 50.8102 51.7809 51.6322 50.7306C52.5451 49.5641 53.421 48.2082 54.6512 47.3598C56.1115 46.3527 58.0889 45.9697 59.8494 45.9297C62.496 45.8695 65.4822 45.0705 67.6126 47.2009C69.0492 48.6375 70.0515 50.579 71.4488 52.0585C72.6023 53.2799 72.826 54.3355 72.4249 55.9401C72.2004 56.8379 72.0645 57.7299 71.7552 58.596C71.6109 59.0001 71.2894 59.644 71.2445 60.026C71.1607 60.7385 70.7109 61.9203 70.0187 62.2279C69.5449 62.4385 69.0253 62.4525 68.5092 62.6819C68.2277 62.807 67.969 63.4479 67.6126 63.4083C67.4599 63.3913 67.3629 60.0667 67.3629 59.6175" stroke="#F1CA49" stroke-width="20" stroke-linecap="round"/>
<path d="M70.9255 70.2913C71.4099 69.6813 72.0276 69.0788 72.5812 68.5252C72.9229 68.1835 73.1228 67.7629 73.4642 67.4215C73.8464 67.0392 74.3443 66.6547 74.568 66.2073" stroke="#F1CA49" stroke-width="10" stroke-linecap="round"/>
<path d="M61.4332 73.161C61.4332 75.2057 61.5281 77.2747 61.2185 79.2869C61.0755 80.2164 61.2124 81.2766 61.2124 82.2119C61.2124 83.8212 61.3399 85.4837 61.2063 87.0869C61.0553 88.8985 60.7441 90.7051 60.6667 92.526C60.6034 94.0127 60.6605 95.5142 60.6605 97.0023C60.6605 98.9938 60.8813 100.968 60.8813 102.963C60.8813 103.48 60.791 103.535 60.9671 102.987C61.3416 101.822 62.3254 100.772 62.9171 99.7065C64.0107 97.7381 64.446 95.4619 65.1982 93.3599C65.3913 92.8205 65.3432 92.1704 65.4067 91.6062C65.6174 89.7335 66.0291 87.9037 66.394 86.0567C67.0657 82.6562 67.7159 79.2159 67.9392 75.7549C68.0106 74.6494 67.9454 73.5208 67.9454 72.4129C67.9454 71.441 66.6358 73.1087 66.5227 73.253C65.2232 74.9117 64.1416 76.4571 63.5855 78.4591C63.3579 79.2786 63.1831 80.0659 62.8681 80.8629C62.3745 82.1112 61.8938 83.3387 61.2983 84.5298C60.9809 85.1646 60.841 85.9174 60.5502 86.5718C60.5045 86.6745 60.4398 87.0031 60.4398 86.8906C60.4398 86.6082 60.3371 86.3533 60.3294 86.0751C60.3154 85.5716 60.3306 84.7759 60.1638 84.309C60.1068 84.1493 60.1086 83.4105 60.1086 83.9227C60.1086 85.2417 60.3686 86.4434 60.6851 87.7307C61.405 90.6597 61.7906 93.6295 62.0832 96.6283C62.1869 97.692 61.8684 98.7521 61.6784 99.7863C61.54 100.54 61.4332 101.285 61.4332 102.055C61.4332 102.868 61.2342 103.78 60.4398 104.177" stroke="#F1CA49" stroke-width="10" stroke-linecap="round"/>
<path d="M25.5609 101.638C25.598 99.7069 26.6079 97.9056 27.5231 96.2542C28.0824 95.2451 28.6703 94.3157 29.3075 93.3599C29.5167 93.0462 29.5542 92.69 29.6632 92.3359C30.0169 91.1862 30.5297 90.1015 31.0183 89.0062C31.9173 86.9913 33.0209 85.086 34.1702 83.2053C34.8564 82.0825 35.634 81.0225 36.4636 80.0044C37.28 79.0024 37.8958 77.8404 38.7508 76.8587C39.6344 75.8442 40.3864 74.7404 41.2588 73.7129C41.892 72.9671 42.6991 72.4689 43.3866 71.7813C44.5671 70.6008 45.9953 69.3093 47.6116 68.7705C48.0469 68.6254 48.2768 68.636 48.7399 68.7828C49.4137 68.9964 50.6932 69.2527 50.7267 70.1564C50.7435 70.61 50.9462 71.0451 50.7818 71.5054C50.3415 72.7385 49.7731 73.8541 49.1814 75.0374C48.9105 75.5793 48.5927 76.6529 48.0654 76.9752C47.6433 77.2331 47.6738 77.3565 47.5748 77.8091C47.4335 78.4551 47.1696 79.0776 46.888 79.6733C46.2339 81.057 45.8114 82.5325 45.1465 83.9227C43.9481 86.4284 41.9711 88.4408 40.6824 90.8826C40.5134 91.2028 40.2805 91.3152 39.9711 91.508C39.1031 92.0492 38.2291 92.5822 37.3711 93.1392C36.5643 93.6629 35.8413 94.2237 35.1084 94.8439C34.1812 95.6284 33.4405 96.639 32.5207 97.4438C32.1591 97.7603 31.8397 98.0975 31.466 98.3882C31.2034 98.5924 30.7663 98.935 30.6136 99.2099C30.4649 99.4775 30.086 99.762 29.8655 99.9825C29.5342 100.314 29.6369 99.8794 29.6448 99.5655C29.678 98.2371 30.63 96.9672 31.2514 95.8434C33.5596 91.6689 37.1616 88.4482 40.106 84.7506C40.5817 84.1532 41.0012 83.4172 41.4305 82.7883C43.1985 80.1989 45.0122 77.6433 46.8267 75.0865C47.2462 74.4953 47.9551 73.7492 48.188 73.0507" stroke="#F1CA49" stroke-width="10" stroke-linecap="round"/>
<path d="M8.8941 54.9489C10.3234 55.2481 11.6231 56.0064 13.0884 56.1692C13.5656 56.2222 14.05 56.4143 14.5294 56.4942C15.781 56.7028 17.0191 56.9829 18.27 57.1994C18.8923 57.3071 19.549 57.3924 20.177 57.4631C20.7285 57.5251 21.128 57.686 21.6548 57.8065C23.8186 58.301 26.0122 58.6796 28.1854 59.1371C28.8634 59.2798 29.6141 59.5546 30.3071 59.5848C31.3446 59.6299 32.3911 59.4972 33.4283 59.4805C36.5781 59.4297 39.5662 59.5046 42.6631 60.0631C42.833 60.0937 45.6545 60.4667 44.7174 60.9093C44.2873 61.1123 43.7734 61.1588 43.3254 61.3508C42.5449 61.6853 41.7519 62.0487 40.9278 62.2583C39.3025 62.6717 37.7293 62.6753 36.0712 62.6753C35.3522 62.6753 34.6179 62.7466 33.9495 62.43C33.6316 62.2794 33.248 62.3251 32.901 62.2706C31.4095 62.0362 29.9054 61.8308 28.4185 61.5715C27.0113 61.3262 25.6156 61.0778 24.2119 60.8234C23.1389 60.629 21.9625 60.1366 20.8761 60.1366C19.0578 60.1366 17.2334 59.9157 15.6884 59.0329C14.5352 58.3739 16.637 56.0092 17.2275 55.5499C18.3107 54.7074 19.8163 54.7282 21.1459 54.7282C22.931 54.7282 24.6678 54.7978 26.4439 54.9735C27.1514 55.0434 27.8344 55.1697 28.5288 55.1697C31.1364 55.1697 33.7741 55.0505 36.3778 55.1942C38.2046 55.2951 40.0861 55.6607 41.8721 56.0527C42.6341 56.22 43.5096 56.4265 44.19 56.8253C44.4551 56.9807 44.8865 56.9647 44.9872 57.2669" stroke="#F1CA49" stroke-width="10" stroke-linecap="round"/>
<path d="M39.1372 15.655C39.1372 21.7481 38.8304 27.8435 39.223 33.9284C39.2732 34.7068 39.2475 35.491 39.2475 36.2708C39.2475 36.54 39.363 36.7467 39.4928 36.9822C39.8901 37.7029 40.2848 38.4056 40.6211 39.159C41.5507 41.2414 42.3827 43.0499 43.8588 44.7944C44.989 46.13 47.0969 46.6588 48.5805 45.5547C49.9772 44.5153 51.415 43.0255 52.2719 41.4831C52.5215 41.0338 52.8054 40.6552 52.9097 40.134C53.1119 39.1227 52.7376 37.9467 52.3823 37.019C51.4987 34.7119 50.2376 32.5236 49.4389 30.2002C48.965 28.8214 48.2708 27.4729 47.7465 26.104C47.3561 25.0845 46.9458 24.073 46.5569 23.0502C46.2168 22.1559 45.6211 21.3283 45.122 20.5116C44.5363 19.5531 44.124 18.4919 43.4418 17.5927C43.0166 17.0322 42.3877 16.6 41.8904 16.1026C41.5516 15.7638 41.2886 15.4145 41.0136 15.0173C40.5896 14.405 39.7709 13.9588 39.2537 13.3984C39.0173 13.1424 39.5669 14.9113 39.5909 14.9927C40.4816 18.0147 41.4788 20.9985 42.3749 24.0191C42.9441 25.9378 43.7966 27.7821 44.4597 29.6728C45.048 31.3499 45.613 33.0821 45.9253 34.836C46.172 36.2213 46.4658 37.605 46.6918 38.9935C46.8377 39.8896 46.9774 40.7666 47.1824 41.6548C47.3167 42.2368 47.7037 43.0932 46.9003 42.5378C44.729 41.0367 43.4689 38.4423 42.522 36.0562C42.2442 35.3561 42.0069 34.6236 42.0069 33.8671" stroke="#F1CA49" stroke-width="10" stroke-linecap="round"/>
<path d="M61.1021 41.8142C61.1021 39.3602 61.1639 37.019 61.4945 34.5845C61.7575 32.6479 62.162 30.677 62.6473 28.7898C63.1683 26.7636 63.6972 24.8439 64.0332 22.7804C64.2244 21.6054 64.6543 20.4854 64.8303 19.2974C65.0364 17.9065 65.1363 16.4841 65.4619 15.1092C65.6546 14.2957 65.9265 13.3124 65.9586 12.4786C65.9687 12.2161 65.9084 11.3315 65.9647 12.0923C66.2009 15.2808 66.7116 18.4079 66.7312 21.6153C66.7503 24.7231 66.9163 27.8306 66.8355 30.9421C66.8018 32.239 66.7729 33.5723 66.6209 34.8605C66.4737 36.1067 66.207 37.3574 66.1794 38.6133C66.1631 39.3529 66.1199 40.422 65.7379 41.0906C65.2752 41.9002 66.0984 39.2609 66.2652 38.3435C67.0084 34.2561 66.6209 29.9111 66.6209 25.779C66.6209 23.0747 66.6209 20.3705 66.6209 17.6663C66.6209 16.0406 66.5556 14.4072 66.394 12.7913C66.3586 12.4376 66.2502 10.9838 66.1794 11.0192" stroke="#F1CA49" stroke-width="10" stroke-linecap="round"/>
<path d="M72.5812 46.7811C72.6164 45.8836 73.1372 44.965 73.4703 44.1321C73.8887 43.0861 74.2692 42.0464 74.7948 41.0477C75.3059 40.0767 76.0735 39.2048 76.8429 38.4354C78.2525 37.0258 79.4476 35.4554 80.7368 33.9407C82.7596 31.5639 84.7579 29.1804 87.0343 27.0237C87.786 26.3117 88.5669 25.6422 89.4074 25.037C89.9013 24.6814 90.2065 24.1889 90.6277 23.7676C92.0341 22.3612 93.2924 20.6442 94.8772 19.4323C95.1136 19.2515 98.1885 17.2228 98.1885 18.0833C98.1885 19.5133 97.2197 20.9296 96.539 22.1549C96.0256 23.079 95.4822 23.9861 94.9876 24.9205C94.6112 25.6314 94.0674 26.2435 93.7182 26.9686C93.3444 27.745 92.853 28.4741 92.4489 29.2374C91.8692 30.3324 91.1074 31.3265 90.4253 32.3586C89.7377 33.3992 89.1091 34.4261 88.2669 35.3449C86.1201 37.6868 84.0202 39.7656 81.4113 41.5444C80.3752 42.2508 79.3308 43.1517 78.4557 44.0462C77.7066 44.812 77.3212 45.9468 76.5547 46.6707C76.1306 47.0713 76.5614 45.7067 76.6283 45.6038C77.4362 44.3609 78.6197 43.3001 79.6085 42.2066C81.6092 39.9941 83.4405 37.6898 85.2131 35.2897C86.0667 34.1341 86.8082 32.9274 87.6169 31.7454C87.8401 31.4191 88.0534 31.1207 88.3405 30.8624C88.5268 30.6947 88.2363 30.5925 88.1442 30.7765" stroke="#F1CA49" stroke-width="10" stroke-linecap="round"/>
<path d="M74.3473 61.7923C77.0699 61.7923 79.7925 61.7923 82.5151 61.7923C84.2118 61.7923 85.9676 61.9232 87.6537 61.7064C90.6561 61.3204 93.668 60.628 96.6678 60.1366C98.0448 59.9111 99.3741 59.4263 100.727 59.0881C101.859 58.805 102.884 58.2701 104.038 58.064C105.641 57.7778 107.02 56.5868 108.454 55.8565C108.877 55.6407 109.319 55.3009 109.778 55.1697C110.085 55.0821 110.468 54.7282 110.771 54.7282C111.225 54.7282 110.327 55.5309 110.011 55.8565C108.704 57.2048 107.375 58.4465 105.7 59.3027C104.416 59.9593 103.038 60.5585 101.635 60.9093C100.19 61.2706 98.8093 61.648 97.3178 61.8413C95.8143 62.0362 94.1615 62 92.6452 62.013C91.7705 62.0206 90.878 62.0543 90.0084 61.9456C88.6871 61.7804 87.5787 61.1987 86.3905 60.6456C85.767 60.3553 85.1219 60.129 84.5019 59.83C84.2375 59.7026 83.8443 59.4806 83.5453 59.4744C81.665 59.4352 79.4102 59.8943 77.7812 58.7631C77.2561 58.3985 76.4804 57.7664 76.4444 57.0461C76.4002 56.1614 77.1177 56.007 77.8364 55.6541C79.3569 54.9077 80.7449 54.5233 82.4538 54.5075C85.2535 54.4815 87.9677 54.0229 90.7504 53.7961C92.6227 53.6436 94.496 53.6162 96.3735 53.6244C98.1354 53.6322 99.9797 53.5952 101.696 54.0414C103.363 54.4748 104.879 53.7704 106.546 53.4098C107.606 53.1807 108.586 52.9622 109.668 52.9622C109.794 52.9622 110.764 53.0085 110.587 53.0726C110.002 53.2853 109.358 53.3423 108.748 53.4282C105.579 53.874 102.433 54.4614 99.2678 54.9244C96.0682 55.3924 92.8236 55.7818 89.7018 56.6598C89.1931 56.8029 88.6875 57.0781 88.1443 57.0461C87.8501 57.0288 88.2976 56.774 88.3405 56.7518C89.9162 55.9368 91.4509 55.0845 93.0683 54.3419C94.818 53.5386 96.5885 52.8042 98.4216 52.2141C99.0323 52.0175 99.6121 51.748 100.261 51.748C101.449 51.748 102.621 51.9688 103.818 51.9688" stroke="#F1CA49" stroke-width="10" stroke-linecap="round"/>
<path d="M116.792 52.0896C116.792 52.3462 116.827 52.5541 116.876 52.8015C116.914 52.9895 116.975 53.1771 116.975 53.3696C116.975 53.653 117.001 53.9472 117.001 54.2356C117.001 54.707 116.936 55.1653 116.786 55.6144C116.756 55.7061 116.704 55.7794 116.676 55.8715C116.646 55.971 116.625 56.0653 116.589 56.1636C116.569 56.2174 116.522 56.2468 116.504 56.3002" stroke="#F1CA49" stroke-width="3" stroke-linecap="round"/>
<ellipse cx="57.5204" cy="53.6384" rx="19.1466" ry="17.5511" fill="#7C5E42"/>
<path d="M5.95697 20.816C5.95697 23.1925 7.1702 25.9281 8.26708 28.014C10.3482 31.9716 12.9847 35.7452 15.7467 39.2546C19.1091 43.5268 22.6423 47.648 26.0859 51.8475C26.8959 52.8353 27.9643 54.2082 29.2834 54.538" stroke="#F1CA49" stroke-width="3" stroke-linecap="round"/>
<path d="M6.21048 20.0554C9.40697 20.0554 12.3932 20.1058 15.465 21.1541C19.4832 22.5254 23.1229 24.766 26.6211 27.1266C27.8455 27.9528 29.0428 28.8504 30.2835 29.648C30.8224 29.9944 31.5654 30.0377 32.1569 30.3734C33.7529 31.2792 35.3699 32.1259 36.8969 33.1483C37.3852 33.4753 37.9648 34.0631 38.5379 34.2541" stroke="#F1CA49" stroke-width="3" stroke-linecap="round"/>
<path d="M21.8631 37.7006C23.9819 38.6368 24.7085 40.883 25.9437 42.6475C26.3392 43.2125 26.6596 43.9237 26.9638 44.5501C27.197 45.0302 27.4105 45.4118 26.6642 45.2626C25.979 45.1256 25.374 44.3575 24.8102 43.9672C24.4643 43.7277 23.9345 43.4178 23.7576 43.0199C23.6359 42.7461 23.2935 42.6362 23.1423 42.3641C22.7787 41.7096 23.2003 43.0683 23.2476 43.2385C23.6126 44.5525 24.3134 45.9892 25.215 47.0195C26.114 48.047 26.4702 48.2564 27.7087 47.9749C29.1906 47.6381 30.8036 48.241 32.2103 47.5377C32.6999 47.2929 33.2606 46.9286 33.781 46.7685C34.0833 46.6755 34.1427 47.2433 34.3234 47.3839C34.5344 47.548 34.7866 47.6892 35.0521 47.7482C35.3565 47.8158 35.0977 47.406 35.0359 47.311C34.643 46.7065 33.9725 46.2527 33.4895 45.716C31.2096 43.1828 28.6685 41.0948 26.0894 38.8664C24.7434 37.7035 23.5846 36.2976 22.1626 35.2312C21.6456 34.8434 21.7007 35.044 21.7173 35.6603C21.7634 37.3639 22.2902 39.4227 21.604 41.0525C21.087 42.2802 19.2387 38.9776 18.9484 38.4292C17.9825 36.6048 16.8574 34.976 15.9203 33.1018C15.0897 31.4406 13.8129 30.3449 12.9732 28.8755C12.4873 28.0251 12.3572 26.9731 11.8802 26.1146C11.5886 25.5897 11.6554 24.5816 11.0058 24.2929C10.5879 24.1072 9.89531 23.8339 9.62132 23.4914C9.56965 23.4268 9.14406 23.0771 9.2165 23.0137C9.25873 22.9767 10.8707 23.95 11.0139 24.0015C12.6932 24.6043 14.9053 24.9355 16.398 25.9689C17.9722 27.0587 19.3361 28.3972 20.9968 29.3937C21.9629 29.9734 23.2807 30.1808 24.1624 30.8591C25.6162 31.9774 27.3116 32.8211 28.826 33.9114C30.1899 34.8934 31.3967 36.0817 32.7203 37.1176C32.7891 37.1714 33.8254 38.0809 33.6029 37.6358C32.9522 36.3345 31.6437 35.34 30.931 34.0572C30.6748 33.5959 30.0512 33.168 29.587 32.9237C27.0183 31.5717 24.9066 29.4586 22.3003 28.2278C21.547 27.8721 20.8448 27.4354 20.1142 27.0295C19.8227 26.8675 19.6231 26.6169 19.3127 26.479C19.1451 26.4045 18.7173 26.1875 18.8026 26.1875" stroke="#F1CA49" stroke-width="10" stroke-linecap="round"/>
<path d="M20.4058 33.7657C20.0937 32.9949 19.676 32.4423 19.1751 31.7983C18.9276 31.48 18.8027 31.4099 18.8027 31.8711" stroke="#F1CA49" stroke-width="10" stroke-linecap="round"/>
</svg>

