<svg width="212" height="297" viewBox="0 0 212 297" fill="none" xmlns="http://www.w3.org/2000/svg">
<path d="M115.921 105.065C129.664 114.601 147.17 132.641 152.199 149.166C157.401 166.257 157.701 183.324 157.701 201.09C157.701 221.264 157.983 241.806 165.782 260.837C169.097 268.925 175.509 288.052 184.007 292.301" stroke="#51A050" stroke-width="8" stroke-linecap="round"/>
<path d="M161.507 217.234C161.507 212.872 161.17 208.585 162.421 204.371C164.532 197.26 172.087 191.537 177.687 187.192C185.447 181.172 192.847 175.478 198.962 167.745C201.013 165.151 202.956 162.676 204.767 159.96" stroke="#51A050" stroke-width="5" stroke-linecap="round"/>
<path d="M204.767 159.96C206.081 163.61 207.639 166.99 208.186 170.927C208.849 175.703 209.29 181.015 208.423 185.787C207.396 191.435 202.942 196.251 199.283 200.41C193.446 207.047 186.504 212.575 180.429 218.994C174.738 225.008 171.482 232.227 168.886 240.015C168.621 240.809 168.897 241.765 168.75 242.588C168.534 243.808 168.357 245.031 168.141 246.243C167.498 249.864 166.99 253.136 166.99 256.838" stroke="#51A050" stroke-width="5" stroke-linecap="round"/>
<path d="M166.076 242.52V240.997" stroke="#51A050" stroke-width="5" stroke-linecap="round"/>
<path d="M183.137 197.127C180.619 200.485 177.803 203.635 175.097 206.842C173.995 208.148 173.373 209.687 172.322 210.972C171.277 212.248 171.255 211.395 171.255 210.227C171.255 208.411 170.873 206.171 171.425 204.439C171.855 203.086 172.479 201.837 172.846 200.478C173.081 199.61 173.93 197.108 173.93 198.007C173.93 198.544 173.08 199.637 172.779 200.106C170.989 202.89 168.862 205.312 167.6 208.467C166.184 212.005 165.687 215.294 165.45 219.079C165.246 222.338 165.167 225.714 164.705 228.946C164.433 230.85 164.969 233.067 164.401 234.887C163.842 236.676 164.248 239.112 164.248 240.997C164.248 241.68 163.944 244.957 163.944 243.129" stroke="#51A050" stroke-width="8" stroke-linecap="round"/>
<path d="M166.99 235.208C166.99 229.017 169.988 223.973 172.931 218.74C174.349 216.219 175.528 213.802 177.348 211.513C178.643 209.886 180.164 208.367 181.613 206.876C182.538 205.925 183.355 204.67 184.474 203.999C186.247 202.935 181.359 206.73 179.955 208.247C178.309 210.024 176.63 212.636 175.52 214.797C175.316 215.195 174.299 217.616 174.606 217.471C175.931 216.848 177.226 215.924 178.567 215.254C180.961 214.057 182.542 211.72 184.118 209.618C186.207 206.833 189.015 204.622 190.905 201.714C192.541 199.197 194.962 197.7 196.711 195.451C198.147 193.604 199.143 191.481 199.96 189.274C200.745 187.155 201.817 185.193 202.313 182.961C202.705 181.194 202.513 179.12 203.007 177.392C203.462 175.797 203.548 173.65 203.548 171.993C203.548 171.247 203.658 170.772 203.836 170.149C203.98 169.643 204.739 168.615 204.395 169.776C203.901 171.441 204.158 173.406 204.158 175.125C204.158 177.584 204.158 180.044 204.158 182.504C204.158 184.66 204.177 188.264 202.939 190.12" stroke="#51A050" stroke-width="8" stroke-linecap="round"/>
<path d="M170.341 218.757C169.772 217.385 167.989 215.416 167.904 213.883C167.846 212.84 167.537 211.7 167.312 210.684C166.936 208.994 166.392 205.68 167.769 204.303C168.661 203.411 169.55 202.414 170.409 201.46C171.004 200.799 171.565 199.682 172.304 199.26C173.703 198.461 174.605 197.306 176.197 196.755C177.597 196.27 179.155 195.944 180.395 195.147C186.533 191.201 191.712 185.606 196.355 179.931C197.538 178.486 198.078 176.37 199.351 174.955C200.336 173.861 200.746 172.842 200.485 175.192C200.227 177.509 198.945 180.033 198.132 182.199C196.608 186.264 194.895 190.314 193.021 194.233C191.537 197.336 189.659 200.265 187.097 202.594C185.882 203.698 184.44 204.611 183.153 205.64C182.572 206.105 181.478 207.137 180.699 207.181C178.151 207.322 181.292 201.988 181.782 201.223C184.462 197.043 188.672 194.597 191.599 190.729C192.045 190.141 193.19 189.085 193.19 188.292C193.19 187.898 192.638 188.408 192.53 188.478C190.372 189.881 188.429 191.697 186.471 193.353C181.805 197.297 177.768 201.813 173.388 205.962C171.193 208.041 172.075 204.018 172.626 202.915C173.786 200.596 176.379 199.106 178.025 197.161C179.864 194.988 181.497 192.647 183.289 190.442C184.637 188.783 185.881 186.81 187.402 185.246C188.226 184.398 188.865 183.538 189.534 182.572C189.947 181.975 190.726 181.73 191.057 181.15C191.286 180.75 191.331 181.449 191.294 181.59C191.118 182.277 190.592 182.862 190.16 183.401C188.378 185.628 185.915 187.453 183.712 189.24C180.634 191.737 178.138 194.199 175.909 197.449C173.941 200.319 172.439 204.072 171.187 207.316C170.767 208.407 170.373 209.216 170.341 210.362C170.289 212.25 169.191 213.97 168.649 215.745C167.96 217.998 166.97 220.155 166.245 222.396C165.912 223.426 165.746 224.888 165.162 225.764" stroke="#51A050" stroke-width="8" stroke-linecap="round"/>
<path d="M121.257 71.7119C143.638 65.1077 152.171 40.0758 158.829 20.1022" stroke="#CAB15A" stroke-width="8" stroke-linecap="round"/>
<path d="M158.003 20.1022C155.175 20.1022 151.833 19.6367 149.126 20.561C145.48 21.806 141.877 24.2914 138.598 26.2954C131.359 30.7191 125.885 37.1647 120.431 43.5445C116.838 47.7477 114.196 51.7841 111.99 56.8254C111.542 57.8495 110.975 60.957 110.109 61.3899" stroke="#CAB15A" stroke-width="8" stroke-linecap="round"/>
<path d="M104.329 4.41287C104.466 11.5241 107.618 18.2723 108.779 25.2402C109.677 30.6307 109.697 35.7552 109.697 41.2278C109.697 47.5416 108.871 66.4652 108.871 60.1513" stroke="#CAB15A" stroke-width="8" stroke-linecap="round"/>
<path d="M101.439 4C100.533 6.23803 99.4353 7.79515 98.1359 9.78028C96.1738 12.778 95.1859 16.4605 93.9154 19.7811C91.2962 26.6267 88.4626 34.4683 88.2269 41.893C88.0515 47.4178 88.2269 53.093 88.2269 58.4998" stroke="#CAB15A" stroke-width="8" stroke-linecap="round"/>
<path d="M55.1968 11.4318C61.7449 13.9729 65.4073 18.8761 70.1521 23.7264C74.8286 28.5067 77.2491 34.3185 80.1529 40.2873C82.4333 44.9748 84.4626 50.1164 85.6579 55.1968C86.0053 56.6728 86.5755 58.6595 86.5755 60.1513" stroke="#CAB15A" stroke-width="8" stroke-linecap="round"/>
<path d="M53.1326 13.4962C53.1326 20.9356 51.4074 28.1758 51.0911 35.6081C50.7956 42.5532 50.9542 49.4389 51.8939 56.2519C52.6705 61.8818 56.2724 66.1451 59.7386 70.3815C61.0668 72.0048 62.5796 73.3143 64.0509 74.7855C64.7478 75.4824 65.915 75.8072 66.3447 76.6664" stroke="#CAB15A" stroke-width="8" stroke-linecap="round"/>
<path d="M4.41309 78.7308C10.7307 78.7308 16.839 77.9327 23.0843 77.171C29.3223 76.4103 35.6192 76.6664 41.8932 76.6664C47.8208 76.6664 53.1108 77.5841 58.9129 78.639C60.4864 78.9251 62.3006 79.5565 63.8674 79.5565" stroke="#CAB15A" stroke-width="8" stroke-linecap="round"/>
<path d="M4 79.9694C5.81454 85.9171 11.1173 90.4041 16.0652 93.9155C22.3495 98.3753 30.1048 100.074 37.5348 101.439C44.6368 102.743 51.7665 103.493 58.7292 101.21C61.1747 100.408 63.5266 99.3506 65.9316 98.5489" stroke="#CAB15A" stroke-width="8" stroke-linecap="round"/>
<path d="M67.1703 98.9618C63.8267 101.519 60.4668 104.885 57.4906 107.862C52.2964 113.056 47.8523 119.118 44.0491 125.386C40.0919 131.908 36.3797 138.915 34.7823 146.466C34.1278 149.56 33.6905 152.687 32.9014 155.755C32.5376 157.17 32.0757 158.19 32.0757 159.655" stroke="#CAB15A" stroke-width="8" stroke-linecap="round"/>
<path d="M33.7271 160.893C36.4872 160.893 39.2474 160.893 42.0075 160.893C43.2195 160.893 44.5931 160.987 45.7005 160.389C52.7165 156.599 59.5243 151.478 65.6104 146.351C70.5531 142.187 73.6632 136.068 76.7122 130.478C79.1893 125.937 82.4466 119.163 82.4466 113.825" stroke="#CAB15A" stroke-width="8" stroke-linecap="round"/>
<path d="M85.7497 113.412C85.7497 118.972 84.5111 124.365 84.5111 129.928C84.5111 136.48 84.4056 142.988 85.0157 149.516C85.5491 155.223 86.879 160.627 87.8141 166.238C87.9396 166.991 89.7448 171.762 90.2914 171.215" stroke="#CAB15A" stroke-width="8" stroke-linecap="round"/>
<path d="M92.356 171.628C92.5394 167.592 95.3077 165.817 97.6316 162.866C99.6995 160.24 100.789 157.24 102.265 154.287C105.267 148.283 108.062 142.66 109.697 136.121C110.754 131.89 110.523 127.726 110.523 123.367C110.523 120.066 110.539 117.015 109.789 113.825C109.424 112.275 109.567 110.676 108.871 109.284" stroke="#CAB15A" stroke-width="8" stroke-linecap="round"/>
<path d="M118.367 101.852C132.188 101.852 146.367 103.885 159.793 99.4664C165.062 97.7321 170.014 94.0895 173.601 89.8785C174.741 88.5404 177.269 86.5804 177.822 84.924" stroke="#CAB15A" stroke-width="8" stroke-linecap="round"/>
<path d="M121.257 77.0793C128.16 76.159 134.957 74.4342 141.924 74.1662C149.329 73.8814 157.218 72.9568 164.609 73.868C168.588 74.3585 172.315 75.891 175.918 77.4922C176.924 77.9393 177.69 79.0779 178.647 79.5566" stroke="#CAB15A" stroke-width="8" stroke-linecap="round"/>
<path d="M93.6821 171.298C93.9736 171.069 94.4785 170.773 94.6694 170.43C94.7971 170.2 95.0823 169.938 95.1518 169.695C95.3079 169.149 95.8665 168.589 96.1873 168.125C96.4235 167.784 96.5751 167.378 96.7923 167.023C97.0571 166.59 97.3545 166.179 97.6088 165.739C97.7375 165.516 97.808 165.251 97.9242 165.019C98.0393 164.789 98.2293 164.587 98.3214 164.351C98.3984 164.153 98.4914 163.716 98.6925 163.616" stroke="#CAB15A" stroke-width="5" stroke-linecap="round"/>
<path d="M94.3177 85.3826C95.5427 87.1521 96.8587 88.897 98.1589 90.6109C98.6169 91.2147 99.5264 92.428 100.24 92.7449C101.122 93.1372 101.072 94.0888 101.04 94.9145C101.012 95.6428 100.198 96.5662 99.9017 97.2441C99.1991 98.85 98.6277 100.45 97.8388 102.028C95.7628 106.18 88.8399 105.042 85.6038 102.846C82.6331 100.83 79.2386 97.9402 77.6013 94.6655C76.8065 93.0758 76.6466 91.3977 76.0008 89.864C75.1997 87.9614 74.9379 84.2303 75.5029 82.2527C76.0837 80.2199 77.3449 78.8656 78.6328 77.2201C80.0631 75.3924 81.4355 73.2678 83.3631 71.9384C85.6512 70.3604 88.7496 69.7604 91.5079 69.6977C95.6548 69.6034 100.334 68.3514 103.672 71.6894C105.923 73.9404 107.493 76.9825 109.683 79.3007C111.49 81.2144 111.84 82.8683 111.212 85.3826C110.86 86.7892 110.647 88.1869 110.163 89.5439C109.937 90.1771 109.433 91.186 109.362 91.7846C109.231 92.901 108.526 94.7526 107.442 95.2346C106.699 95.5646 105.885 95.5866 105.077 95.9459C104.636 96.142 104.23 97.1461 103.672 97.0841C103.432 97.0575 103.281 91.8484 103.281 91.1444" stroke="#CAB15A" stroke-width="20" stroke-linecap="round"/>
<path d="M108.863 107.869C109.621 106.913 110.589 105.969 111.457 105.102C111.992 104.566 112.305 103.907 112.84 103.372C113.439 102.773 114.219 102.171 114.57 101.47" stroke="#CAB15A" stroke-width="10" stroke-linecap="round"/>
<path d="M93.9894 112.365C93.9894 115.569 94.1382 118.811 93.6531 121.964C93.4291 123.42 93.6435 125.081 93.6435 126.547C93.6435 129.068 93.8432 131.673 93.6339 134.185C93.3974 137.024 92.9098 139.854 92.7884 142.707C92.6893 145.037 92.7788 147.389 92.7788 149.721C92.7788 152.841 93.1247 155.934 93.1247 159.06C93.1247 159.87 92.9833 159.957 93.2592 159.098C93.8458 157.273 95.3874 155.627 96.3145 153.958C98.028 150.874 98.71 147.307 99.8887 144.014C100.191 143.169 100.116 142.15 100.215 141.266C100.545 138.332 101.191 135.465 101.762 132.571C102.815 127.243 103.834 121.852 104.183 116.429C104.295 114.697 104.193 112.929 104.193 111.193C104.193 109.67 102.141 112.283 101.964 112.509C99.9278 115.108 98.2332 117.53 97.3618 120.667C97.0051 121.951 96.7314 123.184 96.2377 124.433C95.4644 126.389 94.7111 128.312 93.778 130.178C93.2807 131.173 93.0615 132.353 92.6058 133.378C92.5343 133.539 92.4329 134.054 92.4329 133.878C92.4329 133.435 92.2721 133.036 92.26 132.6C92.238 131.811 92.2618 130.564 92.0005 129.833C91.9112 129.582 91.9141 128.425 91.9141 129.227C91.9141 131.294 92.3214 133.177 92.8172 135.194C93.9453 139.783 94.5494 144.436 95.0078 149.135C95.1705 150.802 94.6713 152.463 94.3737 154.083C94.1568 155.264 93.9894 156.431 93.9894 157.638C93.9894 158.912 93.6776 160.34 92.4329 160.962" stroke="#CAB15A" stroke-width="10" stroke-linecap="round"/>
<path d="M37.7827 156.985C37.8409 153.959 39.4232 151.136 40.8573 148.549C41.7336 146.968 42.6548 145.512 43.6532 144.014C43.9809 143.522 44.0397 142.964 44.2105 142.409C44.7647 140.608 45.5681 138.909 46.3338 137.192C47.7424 134.035 49.4715 131.05 51.2723 128.103C52.3474 126.344 53.5659 124.683 54.8657 123.088C56.145 121.518 57.1098 119.697 58.4495 118.159C59.8339 116.569 61.0122 114.84 62.3791 113.23C63.3713 112.061 64.6359 111.281 65.7131 110.203C67.5628 108.354 69.8004 106.33 72.333 105.486C73.015 105.259 73.3753 105.275 74.1009 105.505C75.1566 105.84 77.1614 106.242 77.2139 107.657C77.2402 108.368 77.5579 109.05 77.3003 109.771C76.6103 111.703 75.7197 113.451 74.7926 115.305C74.3682 116.154 73.8703 117.836 73.044 118.341C72.3827 118.746 72.4305 118.939 72.2754 119.648C72.0539 120.66 71.6405 121.636 71.1993 122.569C70.1743 124.737 69.5124 127.049 68.4706 129.227C66.5929 133.153 63.4952 136.306 61.476 140.132C61.2112 140.634 60.8463 140.81 60.3615 141.112C59.0014 141.96 57.632 142.795 56.2877 143.668C55.0235 144.489 53.8907 145.367 52.7423 146.339C51.2896 147.568 50.129 149.152 48.6878 150.413C48.1212 150.909 47.6207 151.437 47.0352 151.892C46.6238 152.212 45.9389 152.749 45.6997 153.18C45.4667 153.599 44.873 154.045 44.5275 154.391C44.0084 154.91 44.1693 154.229 44.1816 153.737C44.2337 151.656 45.7253 149.666 46.6989 147.905C50.3156 141.364 55.9593 136.318 60.5728 130.524C61.3181 129.588 61.9754 128.435 62.6482 127.45C65.4183 123.393 68.2602 119.388 71.1032 115.382C71.7605 114.456 72.8713 113.287 73.2361 112.192" stroke="#CAB15A" stroke-width="10" stroke-linecap="round"/>
<path d="M11.6685 83.8296C13.908 84.2983 15.9443 85.4865 18.2403 85.7416C18.988 85.8246 19.7469 86.1256 20.4982 86.2508C22.4592 86.5776 24.3991 87.0165 26.3591 87.3557C27.3341 87.5245 28.3632 87.6582 29.3471 87.7688C30.2112 87.8661 30.8372 88.1182 31.6627 88.3069C35.053 89.0818 38.49 89.675 41.8952 90.3918C42.9574 90.6155 44.1337 91.046 45.2195 91.0932C46.8451 91.1639 48.4849 90.9561 50.11 90.9299C55.0453 90.8503 59.7271 90.9676 64.5796 91.8426C64.8458 91.8906 69.2666 92.4751 67.7983 93.1685C67.1245 93.4867 66.3192 93.5595 65.6172 93.8603C64.3944 94.3844 63.1518 94.9539 61.8605 95.2823C59.3139 95.93 56.849 95.9356 54.251 95.9356C53.1244 95.9356 51.9738 96.0473 50.9267 95.5513C50.4285 95.3154 49.8274 95.3869 49.2837 95.3015C46.9468 94.9343 44.5901 94.6124 42.2603 94.2062C40.0555 93.8218 37.8686 93.4326 35.6692 93.034C33.9879 92.7294 32.1447 91.9579 30.4424 91.9579C27.5936 91.9579 24.7349 91.6118 22.3141 90.2285C20.5072 89.196 23.8004 85.4908 24.7257 84.7712C26.4229 83.4511 28.7819 83.4837 30.8652 83.4837C33.6623 83.4837 36.3836 83.5928 39.1665 83.868C40.275 83.9776 41.3451 84.1755 42.4332 84.1755C46.5188 84.1755 50.6518 83.9886 54.7314 84.2139C57.5938 84.3719 60.5417 84.9447 63.3402 85.559C64.5341 85.8211 65.9059 86.1447 66.972 86.7696C67.3873 87.0131 68.0632 86.988 68.221 87.4614" stroke="#CAB15A" stroke-width="10" stroke-linecap="round"/>
<path d="M59.0547 22.2617C59.0547 31.8086 58.5741 41.3592 59.1892 50.8934C59.2679 52.113 59.2276 53.3418 59.2276 54.5637C59.2276 54.9854 59.4085 55.3092 59.6119 55.6782C60.2345 56.8074 60.8528 57.9086 61.3798 59.089C62.8364 62.3517 64.14 65.1855 66.4528 67.9188C68.2237 70.0116 71.5265 70.84 73.851 69.1102C76.0394 67.4815 78.2923 65.1472 79.635 62.7305C80.026 62.0266 80.4709 61.4334 80.6342 60.6167C80.9511 59.0321 80.3646 57.1894 79.8079 55.7359C78.4235 52.121 76.4475 48.6923 75.1961 45.0518C74.4535 42.8915 73.3657 40.7786 72.5443 38.6337C71.9325 37.0364 71.2897 35.4514 70.6803 33.8489C70.1474 32.4476 69.2141 31.1508 68.4321 29.8712C67.5143 28.3694 66.8683 26.7067 65.7995 25.2978C65.1332 24.4195 64.1479 23.7423 63.3687 22.963C62.8378 22.4322 62.4256 21.8849 61.9947 21.2624C61.3305 20.303 60.0477 19.6039 59.2372 18.7259C58.8669 18.3247 59.7281 21.0964 59.7657 21.224C61.1612 25.9589 62.7237 30.6342 64.1277 35.3669C65.0195 38.3734 66.3553 41.2631 67.3944 44.2255C68.3161 46.8532 69.2013 49.5674 69.6907 52.3154C70.0773 54.486 70.5376 56.6541 70.8917 58.8296C71.1203 60.2337 71.3392 61.6078 71.6603 62.9995C71.8708 63.9115 72.4772 65.2534 71.2184 64.383C67.8163 62.031 65.8419 57.9661 64.3583 54.2274C63.923 53.1305 63.5512 51.9826 63.5512 50.7974" stroke="#CAB15A" stroke-width="10" stroke-linecap="round"/>
<path d="M93.4707 63.2493C93.4707 59.4042 93.5676 55.7359 94.0856 51.9215C94.4977 48.887 95.1315 45.7989 95.8919 42.842C96.7083 39.6672 97.537 36.6594 98.0633 33.4261C98.363 31.585 99.0366 29.8302 99.3124 27.9688C99.6352 25.7895 99.7918 23.5608 100.302 21.4066C100.604 20.1318 101.03 18.5912 101.08 17.2847C101.096 16.8734 101.002 15.4873 101.09 16.6794C101.46 21.6754 102.26 26.5751 102.291 31.6006C102.321 36.4701 102.581 41.3391 102.454 46.2144C102.401 48.2464 102.356 50.3354 102.118 52.3539C101.887 54.3065 101.469 56.2661 101.426 58.2339C101.401 59.3929 101.333 61.068 100.734 62.1156C100.009 63.384 101.299 59.2486 101.561 57.8112C102.725 51.4069 102.118 44.5989 102.118 38.1244C102.118 33.8873 102.118 29.6502 102.118 25.4131C102.118 22.8659 102.016 20.3065 101.762 17.7747C101.707 17.2205 101.537 14.9425 101.426 14.998" stroke="#CAB15A" stroke-width="10" stroke-linecap="round"/>
<path d="M111.457 71.0317C111.512 69.6254 112.328 68.1861 112.85 66.8811C113.505 65.2423 114.101 63.6131 114.925 62.0483C115.726 60.527 116.929 59.1608 118.134 57.9553C120.343 55.7467 122.215 53.286 124.235 50.9126C127.405 47.1886 130.536 43.454 134.103 40.0749C135.28 38.9592 136.504 37.9101 137.821 36.9619C138.595 36.4047 139.073 35.633 139.733 34.973C141.936 32.7694 143.908 30.079 146.391 28.1802C146.762 27.8969 151.579 24.7182 151.579 26.0664C151.579 28.3071 150.062 30.5261 148.995 32.4461C148.191 33.894 147.339 35.3153 146.564 36.7793C145.974 37.8933 145.122 38.8523 144.575 39.9884C143.989 41.2049 143.22 42.3473 142.586 43.5433C141.678 45.2591 140.484 46.8166 139.416 48.4338C138.338 50.0642 137.353 51.6733 136.034 53.1129C132.67 56.7823 129.38 60.0394 125.292 62.8265C123.669 63.9334 122.032 65.3449 120.661 66.7466C119.487 67.9464 118.883 69.7245 117.683 70.8588C117.018 71.4864 117.693 69.3484 117.798 69.187C119.064 67.2396 120.918 65.5775 122.467 63.8642C125.602 60.3975 128.471 56.787 131.249 53.0264C132.586 51.2157 133.748 49.325 135.015 47.473C135.365 46.9617 135.699 46.4942 136.149 46.0894C136.441 45.8267 135.986 45.6665 135.842 45.9549" stroke="#CAB15A" stroke-width="10" stroke-linecap="round"/>
<path d="M114.224 94.5521C118.49 94.5521 122.756 94.5521 127.022 94.5521C129.68 94.5521 132.431 94.7572 135.073 94.4176C139.777 93.8127 144.497 92.7278 149.197 91.9579C151.355 91.6045 153.437 90.845 155.557 90.315C157.332 89.8714 158.937 89.0333 160.746 88.7104C163.257 88.262 165.417 86.3959 167.663 85.2516C168.327 84.9135 169.019 84.381 169.739 84.1755C170.219 84.0382 170.82 83.4837 171.295 83.4837C172.006 83.4837 170.599 84.7414 170.104 85.2516C168.055 87.3641 165.973 89.3097 163.349 90.6512C161.338 91.6801 159.178 92.6188 156.979 93.1685C154.715 93.7346 152.552 94.326 150.215 94.6289C147.86 94.9343 145.27 94.8775 142.894 94.898C141.524 94.9098 140.125 94.9626 138.763 94.7923C136.692 94.5335 134.956 93.6221 133.094 92.7554C132.117 92.3006 131.106 91.9459 130.135 91.4775C129.72 91.2778 129.104 90.93 128.636 90.9203C125.69 90.8589 122.157 91.5782 119.604 89.8057C118.782 89.2344 117.566 88.2441 117.51 87.1155C117.44 85.7293 118.565 85.4873 119.691 84.9345C122.073 83.7649 124.248 83.1626 126.926 83.1378C131.312 83.0972 135.565 82.3785 139.925 82.0233C142.859 81.7842 145.794 81.7413 148.736 81.7542C151.496 81.7664 154.386 81.7084 157.075 82.4076C159.687 83.0866 162.062 81.983 164.675 81.418C166.336 81.059 167.871 80.7166 169.566 80.7166C169.764 80.7166 171.283 80.7892 171.007 80.8895C170.09 81.2229 169.081 81.3122 168.125 81.4468C163.16 82.1453 158.231 83.0657 153.271 83.7911C148.257 84.5244 143.174 85.1345 138.282 86.5102C137.485 86.7344 136.693 87.1656 135.842 87.1155C135.381 87.0884 136.082 86.6891 136.149 86.6543C138.618 85.3773 141.023 84.0419 143.557 82.8784C146.298 81.6197 149.073 80.469 151.945 79.5444C152.902 79.2364 153.81 78.8142 154.827 78.8142C156.689 78.8142 158.525 79.1601 160.4 79.1601" stroke="#CAB15A" stroke-width="10" stroke-linecap="round"/>
<path d="M180.729 79.3494C180.729 79.7514 180.783 80.0771 180.861 80.4649C180.92 80.7593 181.015 81.0534 181.015 81.355C181.015 81.799 181.056 82.2599 181.056 82.7118C181.056 83.4504 180.954 84.1685 180.719 84.8722C180.672 85.0158 180.59 85.1307 180.546 85.2751C180.499 85.431 180.467 85.5787 180.41 85.7327C180.379 85.817 180.306 85.8631 180.278 85.9467" stroke="#CAB15A" stroke-width="3" stroke-linecap="round"/>
<ellipse cx="87.8586" cy="81.7761" rx="30" ry="27.5" fill="#7C5E42"/>
<path d="M7.06641 30.3483C7.06641 34.0718 8.96736 38.3582 10.686 41.6264C13.9468 47.8274 18.0778 53.7401 22.4056 59.2389C27.6739 65.9327 33.2099 72.3901 38.6055 78.9701C39.8746 80.5178 41.5487 82.6689 43.6155 83.1856" stroke="#CAB15A" stroke-width="3" stroke-linecap="round"/>
<path d="M7.46338 29.1565C12.4718 29.1565 17.1509 29.2355 21.9638 30.878C28.2597 33.0266 33.9627 36.5373 39.4439 40.236C41.3623 41.5305 43.2383 42.9369 45.1822 44.1866C46.0266 44.7294 47.1909 44.7973 48.1176 45.3233C50.6183 46.7426 53.1519 48.0692 55.5444 49.6712C56.3096 50.1835 57.2178 51.1044 58.1157 51.4038" stroke="#CAB15A" stroke-width="3" stroke-linecap="round"/>
<path d="M31.9889 56.8039C35.3088 58.2708 36.4474 61.7903 38.3826 64.5549C39.0024 65.4403 39.5043 66.5546 39.981 67.5361C40.3464 68.2884 40.6809 68.8863 39.5117 68.6525C38.4381 68.4377 37.4901 67.2343 36.6066 66.6227C36.0647 66.2476 35.2346 65.762 34.9574 65.1385C34.7668 64.7095 34.2302 64.5373 33.9933 64.1109C33.4236 63.0855 34.0841 65.2143 34.1582 65.481C34.7301 67.5398 35.8283 69.7909 37.2409 71.4053C38.6495 73.0152 39.2076 73.3433 41.1481 72.9022C43.4701 72.3745 45.9974 73.3193 48.2015 72.2172C48.9687 71.8336 49.8472 71.2629 50.6626 71.012C51.1363 70.8663 51.2293 71.7559 51.5125 71.9762C51.8431 72.2333 52.2383 72.4546 52.6542 72.547C53.1311 72.653 52.7256 72.0108 52.6289 71.862C52.0132 70.9148 50.9627 70.2038 50.2059 69.3629C46.6336 65.3937 42.6521 62.1221 38.611 58.6306C36.502 56.8084 34.6864 54.6057 32.4583 52.9347C31.6482 52.3271 31.7345 52.6415 31.7606 53.607C31.8327 56.2764 32.6582 59.5022 31.583 62.0558C30.773 63.9795 27.8769 58.8048 27.422 57.9456C25.9086 55.087 24.1458 52.5349 22.6775 49.5983C21.3761 46.9955 19.3755 45.2787 18.0599 42.9763C17.2985 41.6438 17.0946 39.9955 16.3473 38.6504C15.8904 37.828 15.995 36.2484 14.9772 35.796C14.3223 35.505 13.2372 35.0768 12.8079 34.5401C12.727 34.439 12.0601 33.891 12.1736 33.7917C12.2398 33.7338 14.7655 35.2588 14.9899 35.3394C17.621 36.2839 21.0872 36.8029 23.426 38.422C25.8926 40.1297 28.0295 42.2269 30.6316 43.7881C32.1454 44.6964 34.2101 45.0215 35.5917 46.0843C37.8696 47.8365 40.526 49.1585 42.8988 50.8669C45.0358 52.4055 46.9268 54.2674 49.0007 55.8905C49.1084 55.9748 50.7322 57.3998 50.3835 56.7024C49.364 54.6635 47.3138 53.1052 46.1971 51.0952C45.7956 50.3724 44.8185 49.702 44.0913 49.3192C40.0665 47.2009 36.7578 43.8898 32.674 41.9614C31.4938 41.4041 30.3935 40.7198 29.2488 40.0839C28.7919 39.8301 28.4793 39.4374 27.9929 39.2212C27.7303 39.1045 27.06 38.7645 27.1937 38.7645" stroke="#CAB15A" stroke-width="10" stroke-linecap="round"/>
<path d="M29.7054 50.6385C29.2165 49.4307 28.5619 48.5649 27.7772 47.5558C27.3893 47.0571 27.1936 46.9473 27.1936 47.67" stroke="#CAB15A" stroke-width="10" stroke-linecap="round"/>
</svg>
